<svg width="64" height="64" viewBox="0 0 64 64" fill="none" xmlns="http://www.w3.org/2000/svg">
<g opacity="0.5">
<rect width="64" height="64" fill="#FBFBFC"/>
<g clipPath="url(#clip0_245_6824)">
<path d="M52.3635 11.6364H11.6362V52.3636H52.3635V11.6364Z" fill="#F7DF1E"/>
<path d="M38.9942 43.4544C39.8146 44.7939 40.8819 45.7785 42.7696 45.7785C44.3553 45.7785 45.3683 44.9859 45.3683 43.8908C45.3683 42.5785 44.3275 42.1137 42.5821 41.3502L41.6253 40.9397C38.8636 39.7631 37.0289 38.2892 37.0289 35.1732C37.0289 32.3029 39.2159 30.1179 42.6338 30.1179C45.0671 30.1179 46.8164 30.9647 48.077 33.1821L45.0968 35.0956C44.4407 33.9191 43.7328 33.4556 42.6338 33.4556C41.5128 33.4556 40.8024 34.1667 40.8024 35.0956C40.8024 36.2438 41.5135 36.7086 43.1555 37.4197L44.1123 37.8295C47.364 39.224 49.1999 40.6455 49.1999 43.8417C49.1999 47.2873 46.4932 49.175 42.8581 49.175C39.3039 49.175 37.0076 47.4813 35.8841 45.2613L38.9942 43.4544ZM25.4747 43.7861C26.0759 44.8527 26.6228 45.7545 27.9377 45.7545C29.1951 45.7545 29.9883 45.2626 29.9883 43.3497V30.3364H33.8154V43.4014C33.8154 47.3642 31.492 49.1679 28.1006 49.1679C25.0364 49.1679 23.2618 47.5821 22.3594 45.6721L25.4747 43.7861Z" fill="#0F0518"/>
</g>
</g>
<defs>
<clipPath id="clip0_245_6824">
<rect width="40.7273" height="40.7273" fill="white" transform="translate(11.6362 11.6364)"/>
</clipPath>
</defs>
</svg>
