<svg width="56" height="56" viewBox="0 0 56 56" fill="none" xmlns="http://www.w3.org/2000/svg">
<g opacity="0.7">
<rect width="56" height="56" fill="#FBFBFC"/>
<g clipPath="url(#clip0_245_7097)">
<path d="M13.0494 21.7575H18.4097C19.0509 21.7088 19.6945 21.812 20.2883 22.0588C20.882 22.3056 21.4092 22.6891 21.8269 23.178C22.1988 23.7252 22.4538 24.3432 22.576 24.9934C22.6982 25.6436 22.685 26.3121 22.5371 26.957C22.4369 27.7037 22.2246 28.4311 21.9073 29.1145C21.5855 29.8281 21.1307 30.474 20.5672 31.0174C19.9977 31.6627 19.2527 32.1283 18.4231 32.3575C17.6529 32.5568 16.8602 32.6559 16.0646 32.6523H13.7194L12.969 36.5787H10.1816L13.0494 21.7575ZM15.3811 24.116L14.2019 30.3206H14.7245C15.806 30.3632 16.8873 30.232 17.9273 29.9319C18.7715 29.6371 19.3478 28.5919 19.6426 26.9168C19.8838 25.4695 19.6426 24.6386 18.9189 24.4108C18.0466 24.1716 17.1427 24.0677 16.2388 24.1026H15.7698H15.3677L15.3811 24.116Z" fill="#0F0518"/>
<path d="M25.7124 17.8181H28.473L27.6823 21.758H30.1749C31.2566 21.7103 32.3244 22.016 33.2169 22.629C33.9003 23.1785 34.1013 24.2237 33.8199 25.7782L32.4798 32.6528H29.6657L31.0057 26.0864C31.0836 25.8449 31.113 25.5903 31.0923 25.3374C31.0716 25.0844 31.0012 24.838 30.8851 24.6123C30.7057 24.4487 30.4932 24.3257 30.2619 24.2517C30.0306 24.1777 29.7861 24.1544 29.5451 24.1835H27.3205L25.5918 32.6528H22.8179L25.7124 17.8181Z" fill="#0F0518"/>
<path d="M36.7823 21.757H42.1426C42.7857 21.7094 43.4309 21.813 44.0267 22.0597C44.6224 22.3064 45.1521 22.6892 45.5732 23.1775C45.9428 23.7257 46.1954 24.3442 46.3153 24.9944C46.4352 25.6446 46.4198 26.3125 46.2701 26.9565C46.1747 27.7027 45.9668 28.4301 45.6536 29.114C45.3261 29.8244 44.872 30.4692 44.3135 31.0169C43.744 31.6622 42.999 32.1278 42.1694 32.357C41.3995 32.558 40.6066 32.6571 39.8109 32.6518H37.4658L36.7019 36.5783H33.9146L36.7823 21.757ZM39.1274 24.1156L37.9214 30.3201H38.444C39.5256 30.3636 40.607 30.2324 41.6468 29.9315C42.5402 29.6367 43.1164 28.6316 43.3755 26.9163C43.6033 25.469 43.3755 24.6382 42.6518 24.4104C41.7792 24.1726 40.8755 24.0687 39.9717 24.1021H39.5161H39.0872L39.1274 24.1156Z" fill="#0F0518"/>
</g>
<rect x="0.5" y="0.5" width="55" height="55" stroke="#0F0518" stroke-opacity="0.2"/>
</g>
<defs>
<clipPath id="clip0_245_7097">
<rect width="36.1821" height="18.7611" fill="white" transform="translate(10.1816 17.8182)"/>
</clipPath>
</defs>
</svg>
