<svg width="56" height="56" viewBox="0 0 56 56" fill="none" xmlns="http://www.w3.org/2000/svg">
<rect width="56" height="56" fill="#FBFBFC"/>
<path d="M27.5478 10.1821C26.2045 10.1884 24.9222 10.3027 23.7933 10.5025C20.4683 11.0898 19.865 12.3193 19.865 14.587V17.5814H27.7219V18.5795H16.9161C14.6328 18.5795 12.6334 19.9518 12.0078 22.5635C11.2862 25.556 11.2544 27.4237 12.0078 30.5486C12.5662 32.8748 13.9 34.5319 16.1836 34.5319H18.8853V30.9422C18.8853 28.3487 21.1288 26.0613 23.7936 26.0613H31.6415C33.8262 26.0613 35.5698 24.2623 35.5698 22.0687V14.5873C35.5698 12.4577 33.7734 10.8582 31.6415 10.5028C30.2912 10.2782 28.8909 10.176 27.5478 10.1821ZM23.2988 12.5904C24.1102 12.5904 24.7733 13.264 24.7733 14.0925C24.7733 14.9176 24.1105 15.5848 23.2988 15.5848C22.4843 15.5848 21.8247 14.9176 21.8247 14.0925C21.8244 13.264 22.4843 12.5904 23.2988 12.5904Z" fill="url(#paint0_linear_245_7055)"/>
<path d="M36.5497 18.5792V22.0684C36.5497 24.7729 34.2563 27.0495 31.6415 27.0495H23.7935C21.6439 27.0495 19.8652 28.8895 19.8652 31.0424V38.5244C19.8652 40.6534 21.7164 41.906 23.7935 42.5166C26.2804 43.2475 28.6655 43.3799 31.6415 42.5166C33.6193 41.9436 35.5697 40.7911 35.5697 38.5244V35.5297H27.7221V34.5312H39.4986C41.7819 34.5312 42.6334 32.9387 43.4275 30.5479C44.2478 28.0868 44.2125 25.7198 43.4275 22.5628C42.8631 20.2894 41.7854 18.5789 39.4986 18.5789H36.5497V18.5792ZM32.1356 37.526C32.9505 37.526 33.6101 38.1932 33.6101 39.0189C33.6101 39.8468 32.9501 40.5204 32.1356 40.5204C31.3242 40.5204 30.6615 39.8468 30.6615 39.0189C30.6615 38.1932 31.3242 37.526 32.1356 37.526Z" fill="url(#paint1_linear_245_7055)"/>
<path opacity="0.444" d="M38.3395 44.3388C38.3395 45.4661 33.6253 46.3803 27.8105 46.3803C21.9954 46.3803 17.2812 45.4661 17.2812 44.3388C17.2812 43.2112 21.9951 42.2971 27.8105 42.2971C33.6253 42.2971 38.3395 43.2109 38.3395 44.3388Z" fill="url(#paint2_radial_245_7055)"/>
<defs>
<linearGradient id="paint0_linear_245_7055" x1="10.667" y1="11.1184" x2="28.7886" y2="26.5724" gradientUnits="userSpaceOnUse">
<stop stopColor="#5A9FD4"/>
<stop offset="1" stopColor="#306998"/>
</linearGradient>
<linearGradient id="paint1_linear_245_7055" x1="35.6069" y1="36.1786" x2="29.1082" y2="27.0652" gradientUnits="userSpaceOnUse">
<stop stopColor="#FFD43B"/>
<stop offset="1" stopColor="#FFE873"/>
</linearGradient>
<radialGradient id="paint2_radial_245_7055" cx="0" cy="0" r="1" gradientUnits="userSpaceOnUse" gradientTransform="translate(27.768 44.2804) rotate(-90) scale(2.04219 8.97714)">
<stop stopColor="#B8B8B8" stopOpacity="0.498"/>
<stop offset="1" stopColor="#7F7F7F" stopOpacity="0"/>
</radialGradient>
</defs>
</svg>
