<svg width="64" height="64" viewBox="0 0 64 64" fill="none" xmlns="http://www.w3.org/2000/svg">
<g opacity="0.7">
<rect width="64" height="64" fill="#FBFBFC"/>
<path d="M54.8456 31.4251L52.8992 30.2191V29.6479L54.5706 28.0823C54.6546 28.0015 54.7178 27.9016 54.7547 27.791C54.7915 27.6804 54.801 27.5626 54.7822 27.4475C54.756 27.3384 54.7038 27.2372 54.6301 27.1525C54.5565 27.0678 54.4635 27.0021 54.359 26.9609L52.2433 26.157C52.1633 25.9816 52.0714 25.812 51.9683 25.6492L53.3223 23.7874C53.3743 23.6859 53.4014 23.5735 53.4014 23.4594C53.4014 23.3454 53.3743 23.233 53.3223 23.1315C53.2797 23.0263 53.2105 22.9339 53.1215 22.8635C53.0325 22.793 52.9268 22.7469 52.8146 22.7295L50.5508 22.3487C50.5508 22.1794 50.3815 22.0102 50.2757 21.8409L51.2278 19.7252C51.2808 19.6214 51.3051 19.5054 51.2984 19.389C51.2916 19.2727 51.254 19.1602 51.1893 19.0633C51.1247 18.9663 51.0354 18.8883 50.9306 18.8373C50.8258 18.7863 50.7093 18.7642 50.5931 18.7732H48.3081L47.9273 18.3289L48.4562 16.0862C48.4862 15.9749 48.4864 15.8576 48.4566 15.7462C48.4269 15.6349 48.3683 15.5333 48.2867 15.4518C48.2052 15.3702 48.1036 15.3116 47.9922 15.2819C47.8808 15.2521 47.7636 15.2523 47.6523 15.2823L45.4096 15.8112C45.2711 15.6799 45.1226 15.5596 44.9653 15.4515V13.1454C44.9708 13.0296 44.9465 12.9142 44.8946 12.8105C44.8427 12.7068 44.7651 12.6181 44.6691 12.553C44.5694 12.4954 44.4563 12.4651 44.3412 12.4651C44.2261 12.4651 44.113 12.4954 44.0133 12.553L41.8975 13.5051L41.3898 13.23L41.1994 11.0085C41.182 10.8964 41.1359 10.7906 41.0654 10.7016C40.995 10.6126 40.9026 10.5434 40.7974 10.5008C40.6959 10.4488 40.5835 10.4217 40.4694 10.4217C40.3554 10.4217 40.243 10.4488 40.1415 10.5008L38.2374 11.9183L37.6873 11.749L36.8833 9.63333C36.8422 9.52888 36.7765 9.43588 36.6918 9.36222C36.6071 9.28856 36.5059 9.23641 36.3967 9.21019C36.2817 9.1914 36.1638 9.20084 36.0533 9.2377C35.9427 9.27455 35.8428 9.33772 35.762 9.42176L34.1964 11.0932H33.6252L32.4615 9.04094C32.4004 8.94482 32.316 8.86569 32.2161 8.81086C32.1163 8.75604 32.0042 8.72729 31.8903 8.72729C31.7764 8.72729 31.6643 8.75604 31.5644 8.81086C31.4646 8.86569 31.3802 8.94482 31.319 9.04094L30.1131 10.9874H29.5418L27.9762 9.37945C27.8983 9.29664 27.8008 9.23479 27.6927 9.1996C27.5846 9.1644 27.4693 9.15701 27.3576 9.17809C27.2459 9.19917 27.1413 9.24805 27.0534 9.32021C26.9656 9.39238 26.8973 9.48551 26.8549 9.59102L26.0509 11.7067L25.5432 11.9183L23.639 10.5642C23.5453 10.4982 23.4362 10.4571 23.3222 10.4448C23.2082 10.4324 23.0929 10.4492 22.9872 10.4937C22.8814 10.5381 22.7887 10.6086 22.7177 10.6987C22.6467 10.7887 22.5997 10.8954 22.5812 11.0085L22.2004 13.2723L21.6926 13.5474L19.5769 12.5953C19.4772 12.5378 19.3641 12.5074 19.249 12.5074C19.1338 12.5074 19.0207 12.5378 18.921 12.5953C18.825 12.6604 18.7474 12.7491 18.6955 12.8528C18.6437 12.9566 18.6193 13.0719 18.6248 13.1877V15.4938L18.1805 15.8535L16.0648 15.3669C15.9535 15.3369 15.8362 15.3367 15.7248 15.3665C15.6135 15.3963 15.5119 15.4549 15.4304 15.5364C15.3488 15.6179 15.2902 15.7195 15.2605 15.8309C15.2307 15.9423 15.2308 16.0595 15.2609 16.1709L15.7898 18.4135L15.4301 18.8578H13.124C13.0082 18.8523 12.8928 18.8766 12.7891 18.9285C12.6854 18.9804 12.5967 19.058 12.5316 19.154C12.474 19.2537 12.4437 19.3668 12.4437 19.4819C12.4437 19.5971 12.474 19.7102 12.5316 19.8099L13.4837 21.9256L13.2086 22.4333L10.9025 22.6872C10.7903 22.7045 10.6846 22.7507 10.5955 22.8212C10.5065 22.8916 10.4374 22.984 10.3947 23.0892C10.3428 23.1907 10.3156 23.3031 10.3156 23.4171C10.3156 23.5312 10.3428 23.6436 10.3947 23.7451L11.8123 25.6492C11.7434 25.8285 11.6869 26.0123 11.643 26.1993L9.5273 27.0033C9.42285 27.0444 9.32985 27.1101 9.25619 27.1948C9.18253 27.2795 9.13038 27.3807 9.10416 27.4899C9.08537 27.6049 9.09481 27.7227 9.13167 27.8333C9.16852 27.9439 9.23169 28.0438 9.31573 28.1246L10.9871 29.6902V30.2614L9.04069 31.4674C8.94458 31.5285 8.86544 31.6129 8.81062 31.7128C8.75579 31.8126 8.72705 31.9247 8.72705 32.0386C8.72705 32.1525 8.75579 32.2646 8.81062 32.3645C8.86544 32.4643 8.94458 32.5487 9.04069 32.6099L10.9871 33.8158V34.3871L9.31573 35.9527C9.23169 36.0334 9.16852 36.1334 9.13167 36.2439C9.09481 36.3545 9.08537 36.4724 9.10416 36.5874C9.13038 36.6965 9.18253 36.7978 9.25619 36.8825C9.32985 36.9672 9.42285 37.0329 9.5273 37.074L11.643 37.878C11.6869 38.065 11.7434 38.2487 11.8123 38.428L10.4582 40.2899C10.4062 40.3914 10.3791 40.5038 10.3791 40.6178C10.3791 40.7318 10.4062 40.8442 10.4582 40.9457C10.5008 41.0509 10.57 41.1433 10.659 41.2138C10.748 41.2842 10.8538 41.3304 10.966 41.3477L13.2298 41.7285L13.5048 42.2363L12.5528 44.352C12.4952 44.4517 12.4649 44.5648 12.4649 44.68C12.4649 44.7951 12.4952 44.9082 12.5528 45.0079C12.6179 45.1039 12.7065 45.1815 12.8103 45.2334C12.914 45.2852 13.0293 45.3096 13.1452 45.3041H15.4513C15.5594 45.4613 15.6797 45.6099 15.8109 45.7484L15.282 47.991C15.252 48.1023 15.2519 48.2196 15.2816 48.331C15.3114 48.4424 15.37 48.544 15.4515 48.6255C15.533 48.707 15.6346 48.7656 15.746 48.7954C15.8574 48.8251 15.9747 48.825 16.086 48.795L18.3286 48.2661L18.7729 48.6257V50.9319C18.7674 51.0477 18.7918 51.163 18.8436 51.2667C18.8955 51.3705 18.9731 51.4591 19.0691 51.5242C19.1688 51.5818 19.2819 51.6121 19.3971 51.6121C19.5122 51.6121 19.6253 51.5818 19.725 51.5242L21.8407 50.5722L22.3485 50.8472L22.7293 53.111C22.7466 53.2232 22.7928 53.329 22.8632 53.418C22.9337 53.507 23.0261 53.5762 23.1313 53.6188C23.2328 53.6708 23.3452 53.6979 23.4592 53.6979C23.5732 53.6979 23.6856 53.6708 23.7871 53.6188L25.5432 52.0743L26.0933 52.2436L26.8972 54.3593C26.9383 54.4637 27.004 54.5567 27.0887 54.6304C27.1735 54.7041 27.2747 54.7562 27.3838 54.7824C27.4989 54.8012 27.6167 54.7918 27.7273 54.7549C27.8378 54.7181 27.9378 54.6549 28.0185 54.5709L29.5842 52.8995H30.1554L31.3614 54.8459C31.4225 54.942 31.5069 55.0211 31.6068 55.076C31.7066 55.1308 31.8187 55.1595 31.9326 55.1595C32.0465 55.1595 32.1586 55.1308 32.2584 55.076C32.3583 55.0211 32.4427 54.942 32.5038 54.8459L33.7098 52.8995H34.281L35.8466 54.5709C35.9274 54.6549 36.0273 54.7181 36.1379 54.7549C36.2485 54.7918 36.3663 54.8012 36.4814 54.7824C36.5905 54.7562 36.6917 54.7041 36.7764 54.6304C36.8611 54.5567 36.9268 54.4637 36.968 54.3593L37.7719 52.2436L38.322 52.0743L40.1838 53.4284C40.2853 53.4804 40.3977 53.5075 40.5118 53.5075C40.6258 53.5075 40.7382 53.4804 40.8397 53.4284C40.9449 53.3858 41.0373 53.3166 41.1077 53.2276C41.1782 53.1386 41.2243 53.0328 41.2417 52.9206L41.6225 50.6568L42.1303 50.3818L44.246 51.3338C44.3457 51.3914 44.4588 51.4217 44.5739 51.4217C44.689 51.4217 44.8021 51.3914 44.9018 51.3338C44.9978 51.2687 45.0755 51.1801 45.1273 51.0763C45.1792 50.9726 45.2035 50.8573 45.198 50.7414V48.4353C45.3553 48.3272 45.5038 48.2069 45.6423 48.0757L47.885 48.6046C47.9963 48.6346 48.1136 48.6347 48.225 48.605C48.3364 48.5752 48.4379 48.5166 48.5195 48.4351C48.601 48.3536 48.6596 48.252 48.6893 48.1406C48.7191 48.0292 48.719 47.9119 48.689 47.8006L48.16 45.558L48.5409 45.1137H50.8258C50.942 45.1226 51.0585 45.1005 51.1633 45.0495C51.2681 44.9985 51.3574 44.9205 51.4221 44.8236C51.4867 44.7266 51.5243 44.6141 51.5311 44.4978C51.5379 44.3815 51.5135 44.2654 51.4605 44.1616L50.5085 42.0459C50.6142 41.8766 50.6989 41.7074 50.7835 41.5381L53.0473 41.1573C53.1595 41.14 53.2653 41.0938 53.3543 41.0234C53.4433 40.9529 53.5125 40.8605 53.5551 40.7553C53.6071 40.6538 53.6342 40.5414 53.6342 40.4274C53.6342 40.3133 53.6071 40.2009 53.5551 40.0995L51.9683 38.3434C52.0371 38.1641 52.0937 37.9803 52.1375 37.7933L54.2533 36.9894C54.3577 36.9482 54.4507 36.8825 54.5244 36.7978C54.598 36.7131 54.6502 36.6119 54.6764 36.5028C54.6952 36.3877 54.6857 36.2699 54.6489 36.1593C54.612 36.0487 54.5489 35.9488 54.4648 35.868L52.7934 34.3024V33.7312L54.7399 32.5252C54.836 32.4641 54.9151 32.3797 54.9699 32.2798C55.0248 32.18 55.0535 32.0679 55.0535 31.954C55.0535 31.8401 55.0248 31.728 54.9699 31.6282C54.9151 31.5283 54.836 31.4439 54.7399 31.3828L54.8456 31.4251ZM41.7706 47.6314C41.4115 47.5556 41.0972 47.3403 40.8968 47.0328C40.6964 46.7253 40.6264 46.3508 40.7022 45.9917C40.7779 45.6326 40.9932 45.3183 41.3007 45.1179C41.6082 44.9175 41.9827 44.8475 42.3418 44.9233C42.6996 45.0043 43.0111 45.2228 43.209 45.5316C43.4069 45.8404 43.4754 46.2146 43.3997 46.5735C43.3646 46.7512 43.2942 46.92 43.1927 47.07C43.0912 47.22 42.9606 47.3481 42.8087 47.4468C42.6568 47.5454 42.4867 47.6125 42.3084 47.6443C42.1301 47.676 41.9472 47.6716 41.7706 47.6314ZM41.0936 43.1461C40.9324 43.1121 40.7661 43.1103 40.6042 43.1409C40.4423 43.1715 40.2881 43.2338 40.1504 43.3243C40.0127 43.4147 39.8943 43.5316 39.802 43.668C39.7097 43.8045 39.6453 43.9578 39.6126 44.1193L38.9144 47.3563C36.7123 48.3757 34.3168 48.9096 31.8903 48.9219C29.4149 48.9203 26.9689 48.3863 24.718 47.3563L24.0199 44.0558C23.9898 43.893 23.9271 43.738 23.8355 43.6C23.744 43.4621 23.6254 43.3441 23.4871 43.2532C23.3487 43.1622 23.1934 43.1002 23.0304 43.0709C22.8675 43.0416 22.7003 43.0456 22.5389 43.0826L19.6827 43.6961C19.1492 43.1455 18.6544 42.5588 18.2017 41.9401H32.1018C32.2711 41.9401 32.3557 41.9401 32.3557 41.7709V36.8624C32.3557 36.7143 32.3557 36.6932 32.1018 36.6932H28.0397V33.5619H32.4404C33.0956 33.5735 33.7258 33.815 34.2209 34.2443C34.716 34.6737 35.0443 35.2634 35.1485 35.9104C35.3177 36.6085 35.6985 38.83 35.9524 39.5494C36.2063 40.2687 37.2853 41.9401 38.4278 41.9401H45.6C45.1128 42.589 44.5901 43.2106 44.0344 43.8019L41.0936 43.1461ZM21.8618 47.5679C21.6853 47.6081 21.5024 47.6125 21.3241 47.5808C21.1458 47.5491 20.9756 47.4819 20.8237 47.3833C20.6718 47.2846 20.5413 47.1565 20.4397 47.0065C20.3382 46.8565 20.2679 46.6877 20.2328 46.51C20.1924 46.3321 20.1878 46.148 20.2192 45.9683C20.2507 45.7886 20.3176 45.6169 20.4161 45.4634C20.5145 45.3098 20.6425 45.1773 20.7927 45.0737C20.9428 44.9701 21.1121 44.8974 21.2906 44.8598C21.6497 44.784 22.0242 44.854 22.3317 45.0544C22.6392 45.2548 22.8545 45.5691 22.9303 45.9282C23.006 46.2873 22.936 46.6618 22.7357 46.9693C22.5353 47.2768 22.221 47.4921 21.8618 47.5679ZM16.5937 26.1781C16.7038 26.4266 16.7378 26.7021 16.6914 26.9699C16.645 27.2376 16.5203 27.4856 16.333 27.6826C16.1458 27.8795 15.9044 28.0166 15.6393 28.0764C15.3743 28.1363 15.0974 28.1163 14.8437 28.019C14.59 27.9216 14.3708 27.7513 14.2138 27.5294C14.0568 27.3076 13.9691 27.0443 13.9617 26.7726C13.9542 26.501 14.0274 26.2332 14.1721 26.0032C14.3167 25.7731 14.5262 25.591 14.7742 25.4799C14.9391 25.403 15.1177 25.36 15.2995 25.3536C15.4812 25.3472 15.6624 25.3775 15.8323 25.4426C16.0021 25.5078 16.157 25.6065 16.2879 25.7329C16.4187 25.8592 16.5227 26.0107 16.5937 26.1781ZM14.9647 30.0287L17.9478 28.6958C18.1006 28.6295 18.2386 28.5332 18.3537 28.4126C18.4687 28.2921 18.5585 28.1497 18.6176 27.994C18.6768 27.8382 18.7041 27.6721 18.6981 27.5056C18.6921 27.3391 18.6528 27.1755 18.5825 27.0244L17.969 25.6492H20.3809V36.5239H15.5147C14.9391 34.4101 14.7527 32.2092 14.9647 30.0287ZM28.0397 28.9709V25.755H33.7733C34.0695 25.755 35.889 26.0935 35.889 27.4475C35.889 28.8016 34.5137 28.9709 33.3924 28.9709H28.0397ZM48.8159 31.8482C48.8159 32.2714 48.8159 32.6945 48.8159 33.1176H47.1233C46.9329 33.1176 46.8694 33.2234 46.8694 33.3927V34.112C46.8694 35.995 45.8116 36.4181 44.8807 36.5239C43.9498 36.6297 42.9977 36.1431 42.8708 35.593C42.8105 34.6531 42.5278 33.7409 42.0459 32.9317C41.5641 32.1225 40.8968 31.4393 40.0992 30.9385C41.0339 30.4792 41.8412 29.7971 42.45 28.9522C43.0588 28.1072 43.4504 27.1255 43.5901 26.0935C43.5536 25.1832 43.2908 24.2964 42.8253 23.5132C42.3599 22.73 41.7065 22.0753 40.9243 21.6082C39.8266 20.9017 38.5669 20.4866 37.2642 20.4023H19.1961C21.7065 17.6275 25.059 15.7543 28.7379 15.0707L30.8536 17.3133C30.9715 17.4317 31.1117 17.5256 31.266 17.5896C31.4203 17.6537 31.5857 17.6867 31.7528 17.6867C31.9198 17.6867 32.0853 17.6537 32.2396 17.5896C32.3939 17.5256 32.534 17.4317 32.6519 17.3133L35.0215 15.0707C37.4564 15.5295 39.7623 16.5128 41.779 17.9523C43.7957 19.3917 45.475 21.2529 46.7002 23.4066L45.0711 27.0879C45.0008 27.239 44.9615 27.4026 44.9555 27.5691C44.9495 27.7356 44.9768 27.9017 45.036 28.0574C45.0951 28.2132 45.1849 28.3556 45.2999 28.4761C45.415 28.5966 45.553 28.6929 45.7058 28.7593L48.8371 30.1556C48.8623 30.7198 48.8552 31.2849 48.8159 31.8482ZM30.769 13.23C31.0305 12.9703 31.3842 12.8246 31.7528 12.8246C32.1213 12.8246 32.475 12.9703 32.7366 13.23C32.8645 13.3578 32.966 13.5095 33.0353 13.6765C33.1045 13.8435 33.1402 14.0225 33.1402 14.2032C33.1402 14.384 33.1045 14.563 33.0353 14.73C32.966 14.897 32.8645 15.0487 32.7366 15.1765C32.475 15.4362 32.1213 15.5819 31.7528 15.5819C31.3842 15.5819 31.0305 15.4362 30.769 15.1765C30.6464 15.0433 30.5514 14.8872 30.4893 14.7171C30.4272 14.5471 30.3993 14.3665 30.4071 14.1857C30.415 14.0048 30.4585 13.8273 30.5351 13.6633C30.6117 13.4994 30.7199 13.3521 30.8536 13.23H30.769ZM46.9541 26.2416C47.0368 26.0799 47.1507 25.9361 47.2893 25.8187C47.4279 25.7012 47.5884 25.6124 47.7615 25.5573C47.9346 25.5022 48.1169 25.482 48.2979 25.4977C48.4789 25.5135 48.6549 25.565 48.8159 25.6492C49.0639 25.7603 49.2734 25.9423 49.4181 26.1724C49.5627 26.4025 49.6359 26.6702 49.6285 26.9419C49.6211 27.2135 49.5333 27.4769 49.3763 27.6987C49.2194 27.9205 49.0002 28.0909 48.7465 28.1882C48.4928 28.2856 48.2159 28.3056 47.9508 28.2457C47.6857 28.1858 47.4444 28.0488 47.2571 27.8518C47.0699 27.6549 46.9452 27.4069 46.8988 27.1391C46.8524 26.8714 46.8863 26.5959 46.9964 26.3474L46.9541 26.2416Z" fill="#0F0518"/>
</g>
</svg>
