<svg width="43" height="48" viewBox="0 0 43 48" fill="none" xmlns="http://www.w3.org/2000/svg">
<g id="c 3" clip-path="url(#clip0_273_6915)">
<path id="Vector" d="M2.29735 37.159L6.93068 39.7825L35.7039 8.21658L23.4541 1.27716C22.8109 0.905781 22.0812 0.710266 21.3384 0.710266C20.5957 0.710266 19.866 0.905781 19.2228 1.27716L2.29735 10.84C1.65163 11.2128 1.11588 11.7496 0.744352 12.3961C0.372825 13.0425 0.178714 13.7757 0.181674 14.5213V33.5624C0.193448 34.2936 0.394539 35.0093 0.765331 35.6396C1.13612 36.27 1.66396 36.7935 2.29735 37.159Z" fill="#0F0518"/>
<path id="Vector_2" d="M40.3777 10.8394L35.7021 8.21594L6.97119 39.7818L19.221 46.7213C19.8642 47.0926 20.5939 47.2882 21.3366 47.2882C22.0794 47.2882 22.8091 47.0926 23.4523 46.7213L40.3777 37.1584C41.0235 36.7856 41.5592 36.2488 41.9307 35.6023C42.3023 34.9559 42.4964 34.2227 42.4934 33.4771V14.436C42.4816 13.7048 42.2805 12.9891 41.9097 12.3588C41.539 11.7284 41.0111 11.2049 40.3777 10.8394Z" fill="#0F0518"/>
<path id="Vector_3" d="M25.7171 20.9946H32.2969C32.0238 18.3799 30.7556 15.9703 28.7549 14.265C26.7541 12.5596 24.1742 11.6891 21.5492 11.8337C19.9475 11.7715 18.3506 12.0458 16.8615 12.6388C15.3724 13.2319 14.0241 14.1306 12.9037 15.2769C11.7834 16.4232 10.9158 17.7916 10.3569 19.2939C9.79802 20.7962 9.56032 22.399 9.65912 23.9988C9.55092 25.592 9.78362 27.19 10.3417 28.6862C10.8998 30.1824 11.7705 31.5424 12.8956 32.6756C14.0208 33.8088 15.3746 34.689 16.8668 35.2577C18.359 35.8264 19.9553 36.0705 21.5492 35.9736C30.0119 35.9736 32.0007 29.9227 32.0007 26.7069H25.6536C25.6664 27.2432 25.5612 27.7757 25.3454 28.2668C25.1296 28.7579 24.8085 29.1955 24.4048 29.5487C24.0011 29.902 23.5247 30.1622 23.0093 30.3109C22.4939 30.4596 21.9521 30.4932 21.4223 30.4093C17.3813 30.4093 16.7255 25.6067 16.7255 24.0623C16.7255 21.5658 17.6141 17.7153 21.4223 17.7153C22.4215 17.6103 23.423 17.8915 24.2215 18.5012C25.0201 19.1109 25.5552 20.003 25.7171 20.9946Z" fill="#FBFBFC"/>
</g>
<defs>
<clipPath id="clip0_273_6915">
<rect width="42.3135" height="46.5449" fill="white" transform="translate(0.181641 0.727295)"/>
</clipPath>
</defs>
</svg>
