<svg width="42" height="36" viewBox="0 0 42 36" fill="none" xmlns="http://www.w3.org/2000/svg">
<g id="Frame 48097727">
<g id="Group 48095743">
<g id="Group">
<g id="Group_2">
<path id="Vector" d="M3.50999 29.2302C2.09314 29.2302 0.63623 30.3656 0.63623 32.3529C0.63623 34.1697 1.91719 35.4529 3.50999 35.4529C4.82477 35.4529 5.41075 34.5704 5.41075 34.5704V34.9551C5.41075 35.1369 5.58265 35.3398 5.79542 35.3398H6.7458V29.366H5.41075V30.124C5.41075 30.124 4.81986 29.2302 3.50999 29.2302V29.2302ZM3.74781 30.4518C4.91418 30.4518 5.52601 31.4775 5.52601 32.3525C5.52601 33.327 4.79958 34.2525 3.75029 34.2525C2.87314 34.2525 1.99449 33.5421 1.99449 32.3396C1.99449 31.2541 2.75063 30.4518 3.74781 30.4518Z" fill="#0F0518" fill-opacity="0.5"/>
<path id="Vector_2" d="M8.60196 35.3415C8.39684 35.3415 8.21729 35.1944 8.21729 34.9568V29.3677H9.55233V30.1069C9.85486 29.6522 10.4459 29.2301 11.3531 29.2301C12.8358 29.2301 13.6254 30.4121 13.6254 31.5173V35.3415H12.6976C12.4544 35.3415 12.2903 35.1378 12.2903 34.9342V31.8115C12.2903 31.1989 11.915 30.4548 11.0468 30.4548C10.1101 30.4548 9.55234 31.3401 9.55234 32.1736V35.3415L8.60196 35.3415Z" fill="#0F0518" fill-opacity="0.5"/>
<path id="Vector_3" d="M17.5158 29.2318C16.099 29.2318 14.6421 30.3672 14.6421 32.3545C14.6421 34.1713 15.923 35.4545 17.5158 35.4545C18.8306 35.4545 19.4166 34.572 19.4166 34.572V34.9567C19.4166 35.1385 19.5885 35.3414 19.8013 35.3414H20.7516V26.3807H19.4166V30.1256C19.4166 30.1256 18.8257 29.2318 17.5158 29.2318V29.2318ZM17.7537 30.4533C18.92 30.4533 19.5318 31.4791 19.5318 32.354C19.5318 33.3286 18.8054 34.2541 17.7561 34.2541C16.879 34.2541 16.0003 33.5437 16.0003 32.3412C16.0003 31.2557 16.7565 30.4533 17.7537 30.4533Z" fill="#0F0518" fill-opacity="0.5"/>
<path id="Vector_4" d="M22.6073 35.3399C22.4022 35.3399 22.2227 35.1928 22.2227 34.9553V29.3662H23.5577V30.3618C23.7875 29.804 24.2834 29.2983 25.1643 29.2983C25.4099 29.2983 25.6395 29.3435 25.6395 29.3435V30.7238C25.6395 30.7238 25.3528 30.6107 25.0059 30.6107C24.0692 30.6107 23.5577 31.496 23.5577 32.3294V35.3399H22.6073Z" fill="#0F0518" fill-opacity="0.5"/>
<path id="Vector_5" d="M33.7397 35.3403C33.5345 35.3403 33.355 35.1931 33.355 34.9556V29.3665H34.69V35.3403L33.7397 35.3403Z" fill="#0F0518" fill-opacity="0.5"/>
<path id="Vector_6" d="M38.6052 29.2318C37.1884 29.2318 35.7314 30.3672 35.7314 32.3545C35.7314 34.1713 37.0124 35.4545 38.6052 35.4545C39.92 35.4545 40.506 34.572 40.506 34.572V34.9567C40.506 35.1385 40.6779 35.3414 40.8906 35.3414H41.841V26.3807H40.506V30.1256C40.506 30.1256 39.9151 29.2318 38.6052 29.2318V29.2318ZM38.843 30.4533C40.0094 30.4533 40.6212 31.4791 40.6212 32.354C40.6212 33.3286 39.8948 34.2541 38.8455 34.2541C37.9684 34.2541 37.0897 33.5437 37.0897 32.3412C37.0897 31.2557 37.8458 30.4533 38.843 30.4533Z" fill="#0F0518" fill-opacity="0.5"/>
<path id="Vector_7" d="M34.0146 28.078C34.5021 28.078 34.8973 27.6828 34.8973 27.1952C34.8973 26.7077 34.5021 26.3125 34.0146 26.3125C33.5271 26.3125 33.1318 26.7077 33.1318 27.1952C33.1318 27.6828 33.5271 28.078 34.0146 28.078Z" fill="#0F0518" fill-opacity="0.5"/>
<path id="Vector_8" d="M29.1609 29.2273C27.6771 29.2273 26.0469 30.3349 26.0469 32.3413C26.0469 34.1697 27.4354 35.4522 29.1577 35.4522C31.2802 35.4522 32.3166 33.7459 32.3166 32.3529C32.3166 30.6435 30.982 29.2273 29.1609 29.2273ZM29.1658 30.474C30.1919 30.474 30.9573 31.301 30.9573 32.3451C30.9573 33.4072 30.1448 34.2268 29.1688 34.2268C28.2629 34.2268 27.3822 33.4895 27.3822 32.3629C27.3822 31.2175 28.2198 30.474 29.1658 30.474Z" fill="#0F0518" fill-opacity="0.5"/>
</g>
<path id="Vector_9" d="M30.5293 6.92023L33.6884 1.49851C33.8666 1.19456 33.7588 0.808466 33.4562 0.631849C33.1536 0.455235 32.7597 0.557916 32.5856 0.861861L29.3851 6.35341C26.9432 5.24852 24.1946 4.63241 21.2387 4.63241C18.2828 4.63241 15.5341 5.24852 13.0923 6.35341L9.89177 0.861861C9.7135 0.557916 9.3238 0.455235 9.01702 0.631849C8.71023 0.808466 8.60659 1.19456 8.78485 1.49851L11.9439 6.92023C6.4964 9.84468 2.80668 15.3075 2.19727 21.7026H40.2801C39.6707 15.3074 35.981 9.84462 30.5294 6.92023H30.5293ZM12.4953 16.4041C11.6123 16.4041 10.8992 15.6936 10.8992 14.8228C10.8992 13.9479 11.6164 13.2415 12.4953 13.2415C13.3783 13.2415 14.0914 13.952 14.0914 14.8228C14.0956 15.6936 13.3783 16.4041 12.4953 16.4041ZM29.978 16.4041C29.0949 16.4041 28.3819 15.6936 28.3819 14.8228C28.3819 13.9479 29.0991 13.2415 29.978 13.2415C30.861 13.2415 31.5741 13.952 31.5741 14.8228C31.5782 15.6936 30.861 16.4041 29.978 16.4041Z" fill="#32DE84"/>
</g>
</g>
</g>
</svg>
