<svg width="54" height="46" viewBox="0 0 54 46" fill="none" xmlns="http://www.w3.org/2000/svg">
<g id="Group">
<g id="Group_2">
<g id="Group_3">
<path id="Vector" fill-rule="evenodd" clip-rule="evenodd" d="M25.9105 3.36365C27.8519 3.36365 29.6206 4.48289 30.4566 6.23774L37.1167 20.2489C37.1167 20.2489 37.1167 20.2558 37.1098 20.2558C37.1098 20.2558 37.1098 20.2489 37.1167 20.2489C38.6781 18.3352 39.8112 16.0829 40.2948 13.6648C40.8406 10.9358 43.4936 9.17401 46.2226 9.7129C46.8714 9.84251 47.4883 10.0987 48.038 10.4667C48.5878 10.8348 49.0596 11.3076 49.4266 11.8581C49.7936 12.4086 50.0485 13.026 50.1769 13.675C50.3052 14.324 50.3044 14.992 50.1745 15.6407C49.0552 21.23 45.9324 26.2251 41.7042 29.8937L44.1223 34.9786C45.4626 37.7975 44.0601 41.245 41.0893 42.1293L40.9995 42.1569C40.5573 42.2813 40.1013 42.3435 39.6592 42.3435C37.7731 42.3435 35.9698 41.2795 35.1062 39.4694L32.9576 34.951L28.5843 25.7484L26.4356 21.23C26.3889 21.1321 26.3155 21.0495 26.2238 20.9916C26.1321 20.9338 26.0259 20.9031 25.9174 20.9031C25.809 20.9031 25.7028 20.9338 25.6111 20.9916C25.5194 21.0495 25.446 21.1321 25.3993 21.23L23.2023 25.8451C19.8515 25.1335 16.4799 23.0608 14.5731 20.5391L21.3645 6.25156C21.7688 5.38742 22.4113 4.65662 23.2166 4.14505C24.0219 3.63349 24.9565 3.3624 25.9105 3.36365ZM6.8766 15.7858C9.45361 14.7426 12.3899 15.9862 13.4331 18.5701C13.7026 19.2402 14.0895 19.8966 14.5662 20.5253L14.5731 20.5322L14.8011 20.8224C14.8218 20.85 14.8425 20.8707 14.8632 20.8984L14.9254 20.9744C14.96 21.0089 14.9876 21.0504 15.0222 21.0849C15.0291 21.0918 15.036 21.0987 15.036 21.1056L15.0222 21.0849C15.1534 21.2438 15.2985 21.3958 15.4436 21.5478C15.4505 21.5547 15.4505 21.5616 15.4574 21.5616C15.9341 22.0591 16.4661 22.5289 17.0395 22.9641C17.309 23.1714 17.5853 23.3648 17.8686 23.5583C17.8962 23.5721 17.917 23.5928 17.9446 23.6066C19.5406 24.6568 21.3714 25.4444 23.1953 25.8313C23.9691 25.9971 24.7429 26.0869 25.496 26.0938H25.5927C26.5945 26.0938 27.5963 25.9695 28.5774 25.7346L32.9507 34.9372C30.5878 35.7317 28.1076 36.167 25.5927 36.167C23.3266 36.167 21.0329 35.7732 18.8082 35.0615L16.7148 39.4625C16.4225 40.0772 16.0086 40.6262 15.498 41.0764C14.9875 41.5265 14.391 41.8685 13.7446 42.0816C13.0981 42.2947 12.4152 42.3746 11.7371 42.3162C11.0589 42.2579 10.3996 42.0627 9.79905 41.7424C7.39477 40.4643 6.51734 37.452 7.68494 34.9925L9.97868 30.1701C7.38785 27.98 5.32211 25.32 4.12687 22.4321L4.09233 22.3423C3.056 19.7653 4.29959 16.829 6.8766 15.7858Z" fill="#0F0518"/>
<g id="Vector_2">
<path fill-rule="evenodd" clip-rule="evenodd" d="M25.9105 3.36365C27.8519 3.36365 29.6206 4.48289 30.4566 6.23774L37.1167 20.2489C37.1167 20.2489 37.1167 20.2558 37.1098 20.2558C37.1098 20.2558 37.1098 20.2489 37.1167 20.2489C38.6781 18.3352 39.8112 16.0829 40.2948 13.6648C40.8406 10.9358 43.4936 9.17401 46.2226 9.7129C46.8714 9.84251 47.4883 10.0987 48.038 10.4667C48.5878 10.8348 49.0596 11.3076 49.4266 11.8581C49.7936 12.4086 50.0485 13.026 50.1769 13.675C50.3052 14.324 50.3044 14.992 50.1745 15.6407C49.0552 21.23 45.9324 26.2251 41.7042 29.8937L44.1223 34.9786C45.4626 37.7975 44.0601 41.245 41.0893 42.1293L40.9995 42.1569C40.5573 42.2813 40.1013 42.3435 39.6592 42.3435C37.7731 42.3435 35.9698 41.2795 35.1062 39.4694L32.9576 34.951L28.5843 25.7484L26.4356 21.23C26.3889 21.1321 26.3155 21.0495 26.2238 20.9916C26.1321 20.9338 26.0259 20.9031 25.9174 20.9031C25.809 20.9031 25.7028 20.9338 25.6111 20.9916C25.5194 21.0495 25.446 21.1321 25.3993 21.23L23.2023 25.8451C19.8515 25.1335 16.4799 23.0608 14.5731 20.5391L21.3645 6.25156C21.7688 5.38742 22.4113 4.65662 23.2166 4.14505C24.0219 3.63349 24.9565 3.3624 25.9105 3.36365ZM6.8766 15.7858C9.45361 14.7426 12.3899 15.9862 13.4331 18.5701C13.7026 19.2402 14.0895 19.8966 14.5662 20.5253L14.5731 20.5322L14.8011 20.8224C14.8218 20.85 14.8425 20.8707 14.8632 20.8984L14.9254 20.9744C14.96 21.0089 14.9876 21.0504 15.0222 21.0849C15.0291 21.0918 15.036 21.0987 15.036 21.1056L15.0222 21.0849C15.1534 21.2438 15.2985 21.3958 15.4436 21.5478C15.4505 21.5547 15.4505 21.5616 15.4574 21.5616C15.9341 22.0591 16.4661 22.5289 17.0395 22.9641C17.309 23.1714 17.5853 23.3648 17.8686 23.5583C17.8962 23.5721 17.917 23.5928 17.9446 23.6066C19.5406 24.6568 21.3714 25.4444 23.1953 25.8313C23.9691 25.9971 24.7429 26.0869 25.496 26.0938H25.5927C26.5945 26.0938 27.5963 25.9695 28.5774 25.7346L32.9507 34.9372C30.5878 35.7317 28.1076 36.167 25.5927 36.167C23.3266 36.167 21.0329 35.7732 18.8082 35.0615L16.7148 39.4625C16.4225 40.0772 16.0086 40.6262 15.498 41.0764C14.9875 41.5265 14.391 41.8685 13.7446 42.0816C13.0981 42.2947 12.4152 42.3746 11.7371 42.3162C11.0589 42.2579 10.3996 42.0627 9.79905 41.7424C7.39477 40.4643 6.51734 37.452 7.68494 34.9925L9.97868 30.1701C7.38785 27.98 5.32211 25.32 4.12687 22.4321L4.09233 22.3423C3.056 19.7653 4.29959 16.829 6.8766 15.7858Z" fill="#FBFBFC"/>
<path d="M37.1167 20.2489L30.4566 6.23774C29.6206 4.48289 27.8519 3.36365 25.9105 3.36365C24.9565 3.3624 24.0219 3.63349 23.2166 4.14505C22.4113 4.65662 21.7688 5.38742 21.3645 6.25156L14.5731 20.5391C16.4799 23.0608 19.8515 25.1335 23.2023 25.8451L25.3993 21.23C25.446 21.1321 25.5194 21.0495 25.6111 20.9916C25.7028 20.9338 25.809 20.9031 25.9174 20.9031C26.0259 20.9031 26.1321 20.9338 26.2238 20.9916C26.3155 21.0495 26.3889 21.1321 26.4356 21.23L28.5843 25.7484M37.1167 20.2489C37.1167 20.2489 37.1167 20.2558 37.1098 20.2558C37.1098 20.2558 37.1098 20.2489 37.1167 20.2489ZM37.1167 20.2489C38.6781 18.3352 39.8112 16.0829 40.2948 13.6648C40.8406 10.9358 43.4936 9.17401 46.2226 9.7129C46.8714 9.84251 47.4883 10.0987 48.038 10.4667C48.5878 10.8348 49.0596 11.3076 49.4266 11.8581C49.7936 12.4086 50.0485 13.026 50.1769 13.675C50.3052 14.324 50.3044 14.992 50.1745 15.6407C49.0552 21.23 45.9324 26.2251 41.7042 29.8937L44.1223 34.9786C45.4626 37.7975 44.0601 41.245 41.0893 42.1293L40.9995 42.1569C40.5573 42.2813 40.1013 42.3435 39.6592 42.3435C37.7731 42.3435 35.9698 41.2795 35.1062 39.4694L32.9576 34.951L28.5843 25.7484M28.5843 25.7484H28.5981M15.0222 21.0849C14.9876 21.0504 14.96 21.0089 14.9254 20.9744L14.8632 20.8984C14.8425 20.8707 14.8218 20.85 14.8011 20.8224L14.5731 20.5322L14.5662 20.5253C14.0895 19.8966 13.7026 19.2402 13.4331 18.5701C12.3899 15.9862 9.45361 14.7426 6.8766 15.7858C4.29959 16.829 3.056 19.7653 4.09233 22.3423L4.12687 22.4321C5.32211 25.32 7.38785 27.98 9.97868 30.1701L7.68494 34.9925C6.51734 37.452 7.39477 40.4643 9.79905 41.7424C10.3996 42.0627 11.0589 42.2579 11.7371 42.3162C12.4152 42.3746 13.0981 42.2947 13.7446 42.0816C14.391 41.8685 14.9875 41.5265 15.498 41.0764C16.0086 40.6262 16.4225 40.0772 16.7148 39.4625L18.8082 35.0615C21.0329 35.7732 23.3266 36.167 25.5927 36.167C28.1076 36.167 30.5878 35.7317 32.9507 34.9372L28.5774 25.7346C27.5963 25.9695 26.5945 26.0938 25.5927 26.0938H25.496C24.7429 26.0869 23.9691 25.9971 23.1953 25.8313C21.3714 25.4444 19.5406 24.6568 17.9446 23.6066C17.917 23.5928 17.8962 23.5721 17.8686 23.5583C17.5853 23.3648 17.309 23.1714 17.0395 22.9641C16.4661 22.5289 15.9341 22.0591 15.4574 21.5616C15.4505 21.5616 15.4505 21.5547 15.4436 21.5478C15.2985 21.3958 15.1534 21.2438 15.0222 21.0849ZM15.0222 21.0849C15.0291 21.0918 15.036 21.0987 15.036 21.1056L15.0222 21.0849Z" stroke="#FBFBFC" stroke-width="5.54735" stroke-linejoin="round"/>
</g>
</g>
</g>
<g id="Group_4">
<path id="Vector_3" fill-rule="evenodd" clip-rule="evenodd" d="M18.8081 35.0615L23.1952 25.8313C19.8444 25.1197 16.4729 23.047 14.566 20.5253L9.97852 30.17C12.5279 32.3325 15.5885 34.0321 18.8081 35.0615Z" fill="#1A007F"/>
<path id="Vector_4" fill-rule="evenodd" clip-rule="evenodd" d="M37.1175 20.2486C34.9136 22.95 31.8529 24.9535 28.5781 25.7342L32.9514 34.9368C36.1433 33.8591 39.128 32.118 41.705 29.8865L37.1175 20.2486Z" fill="#4E000A"/>
<path id="Vector_5" fill-rule="evenodd" clip-rule="evenodd" d="M9.97836 30.1705L7.68461 34.9929C6.51701 37.4455 7.39444 40.4647 9.79873 41.7428C12.3481 43.097 15.4847 42.0399 16.7145 39.4629L18.8079 35.0619C15.5752 34.0198 12.5763 32.3584 9.97836 30.1705Z" fill="#1A007F"/>
<path id="Vector_6" fill-rule="evenodd" clip-rule="evenodd" d="M46.2221 9.72021C45.5734 9.59032 44.9054 9.58952 44.2564 9.71784C43.6074 9.84616 42.99 10.1011 42.4395 10.4681C41.889 10.8351 41.4162 11.3069 41.0481 11.8567C40.6801 12.4064 40.4239 13.0233 40.2943 13.6721C39.8107 16.0902 38.6776 18.3425 37.1162 20.2562L41.6968 29.901C45.925 26.2324 49.0478 21.2373 50.1671 15.648C50.7129 12.9121 48.9442 10.2591 46.2221 9.72021Z" fill="#FF9396"/>
<path id="Vector_7" fill-rule="evenodd" clip-rule="evenodd" d="M28.5774 25.7346C27.5963 25.9695 26.5945 26.0938 25.5927 26.0938C24.812 26.0938 24.0037 26.004 23.1953 25.8313C19.8445 25.1197 16.473 23.047 14.5662 20.5253C14.0895 19.8966 13.7026 19.2402 13.4331 18.5701C12.3899 15.9931 9.45361 14.7495 6.8766 15.7858C4.29959 16.829 3.056 19.7653 4.09233 22.3423C5.27374 25.2717 7.36022 27.9592 9.97868 30.1701C12.5741 32.3579 15.5708 34.0193 18.8013 35.0616C21.0191 35.7732 23.3197 36.167 25.5858 36.167C28.1006 36.167 30.5809 35.7317 32.9438 34.9372L28.5774 25.7346Z" fill="#002DC8"/>
<path id="Vector_8" fill-rule="evenodd" clip-rule="evenodd" d="M44.1161 34.9717L41.6979 29.8868L37.1174 20.2489L37.1105 20.2558C37.1105 20.2558 37.1105 20.2489 37.1174 20.2489L30.4572 6.23774C30.0484 5.37814 29.4044 4.65196 28.5998 4.1433C27.7953 3.63464 26.8631 3.36432 25.9112 3.36365C23.9698 3.36365 22.2011 4.48289 21.3651 6.23774L14.5737 20.5253C16.4806 23.047 19.8521 25.1197 23.2029 25.8313L25.3999 21.2162C25.6072 20.7809 26.229 20.7809 26.4363 21.2162L28.5849 25.7346L32.9582 34.9372L35.1069 39.4556C35.5154 40.3169 36.1603 41.0443 36.9664 41.5532C37.7725 42.062 38.7066 42.3313 39.6598 42.3297C40.1089 42.3297 40.558 42.2675 41.0002 42.1431C44.0331 41.3072 45.4702 37.8182 44.1161 34.9717Z" fill="#FF536A"/>
</g>
<path id="Vector_9" fill-rule="evenodd" clip-rule="evenodd" d="M18.808 35.0615L23.1952 25.8313C19.8444 25.1197 16.4729 23.047 14.566 20.5253L9.97852 30.17C12.5279 32.3325 15.5885 34.0321 18.808 35.0615Z" fill="#1A007F"/>
<path id="Vector_10" fill-rule="evenodd" clip-rule="evenodd" d="M37.1175 20.2486C34.9136 22.95 31.8529 24.9535 28.5781 25.7342L32.9514 34.9368C36.1433 33.8591 39.128 32.118 41.705 29.8865L37.1175 20.2486Z" fill="#4E000A"/>
<path id="Vector_11" fill-rule="evenodd" clip-rule="evenodd" d="M9.97836 30.1705L7.68461 34.9929C6.51701 37.4455 7.39444 40.4647 9.79873 41.7428C12.3481 43.097 15.4847 42.0399 16.7145 39.4629L18.8079 35.0619C15.5752 34.0198 12.5763 32.3584 9.97836 30.1705Z" fill="#1A007F"/>
<path id="Vector_12" fill-rule="evenodd" clip-rule="evenodd" d="M46.2221 9.72022C45.5734 9.59032 44.9054 9.58952 44.2564 9.71784C43.6074 9.84616 42.99 10.1011 42.4395 10.4681C41.889 10.8351 41.4162 11.3069 41.0481 11.8567C40.6801 12.4064 40.4239 13.0233 40.2943 13.6721C39.8107 16.0902 38.6776 18.3425 37.1162 20.2562L41.6968 29.901C45.925 26.2324 49.0478 21.2373 50.1671 15.648C50.7129 12.9121 48.9442 10.2591 46.2221 9.72022Z" fill="#FF9396"/>
<path id="Vector_13" fill-rule="evenodd" clip-rule="evenodd" d="M28.5774 25.7346C27.5963 25.9695 26.5945 26.0938 25.5927 26.0938C24.812 26.0938 24.0037 26.004 23.1953 25.8313C19.8445 25.1197 16.473 23.047 14.5662 20.5253C14.0895 19.8966 13.7026 19.2402 13.4331 18.5701C12.3899 15.9931 9.45361 14.7495 6.8766 15.7858C4.29959 16.829 3.056 19.7653 4.09233 22.3423C5.27374 25.2717 7.36022 27.9592 9.97868 30.1701C12.5741 32.3579 15.5708 34.0193 18.8013 35.0616C21.0191 35.7732 23.3197 36.167 25.5858 36.167C28.1006 36.167 30.5809 35.7317 32.9438 34.9372L28.5774 25.7346Z" fill="#002DC8"/>
<path id="Vector_14" fill-rule="evenodd" clip-rule="evenodd" d="M44.116 34.9717L41.6979 29.8868L37.1174 20.2489L37.1105 20.2558C37.1105 20.2558 37.1105 20.2489 37.1174 20.2489L30.4572 6.23774C30.0484 5.37814 29.4044 4.65196 28.5998 4.1433C27.7953 3.63464 26.8631 3.36432 25.9112 3.36365C23.9698 3.36365 22.2011 4.48288 21.3651 6.23774L14.5737 20.5253C16.4806 23.047 19.8521 25.1197 23.2029 25.8313L25.3999 21.2162C25.6072 20.7809 26.229 20.7809 26.4363 21.2162L28.5849 25.7346L32.9582 34.9372L35.1069 39.4556C35.5154 40.3169 36.1603 41.0443 36.9664 41.5532C37.7725 42.062 38.7066 42.3313 39.6598 42.3297C40.1089 42.3297 40.558 42.2675 41.0001 42.1431C44.0331 41.3072 45.4702 37.8182 44.116 34.9717Z" fill="#FF536A"/>
</g>
</svg>
