<svg width="48" height="48" viewBox="0 0 48 48" fill="none" xmlns="http://www.w3.org/2000/svg">
<g id="safari 1" clip-path="url(#clip0_273_6901)">
<rect width="46.363" height="46.5455" transform="translate(0.727051 0.727295)" fill="white" style="mix-blend-mode:color"/>
<g id="Group">
<path id="Vector" opacity="0.53" d="M46.2035 25.7984C46.2035 37.6563 36.222 47.2729 23.9211 47.2729C11.6201 47.2729 1.63867 37.6563 1.63867 25.7984C1.63867 13.9405 11.6201 4.32391 23.9211 4.32391C36.222 4.32391 46.2035 13.9405 46.2035 25.7984Z" fill="#0F0518"/>
<path id="Vector_2" d="M47.0373 23.8953C47.0373 36.6653 36.6649 47.0377 23.8949 47.0377C11.1248 47.0377 0.752441 36.6653 0.752441 23.8953C0.752441 11.1253 11.1248 0.752869 23.8949 0.752869C36.691 0.752869 47.0373 11.1253 47.0373 23.8953Z" fill="url(#paint0_linear_273_6901)" stroke="#CDCDCD" stroke-width="0.2637" stroke-miterlimit="11.3386" stroke-linecap="round" stroke-linejoin="round"/>
<path id="Vector_3" d="M45.2398 23.8949C45.2398 35.6746 35.7014 45.213 23.9217 45.213C12.1419 45.213 2.60352 35.6746 2.60352 23.8949C2.60352 12.1152 12.1419 2.57672 23.9217 2.57672C35.6753 2.57672 45.2398 12.1152 45.2398 23.8949Z" fill="url(#paint1_radial_273_6901)"/>
<path id="Vector_4" d="M23.8948 3.69891C23.7123 3.69891 23.582 3.82922 23.582 4.01165V7.60811C23.582 7.79053 23.7123 7.92084 23.8948 7.92084C24.0772 7.92084 24.2075 7.79053 24.2075 7.60811V4.01165C24.2075 3.82922 24.0772 3.69891 23.8948 3.69891ZM21.862 3.82922C21.8359 3.82922 21.8099 3.82922 21.8099 3.82922C21.6274 3.85528 21.5232 4.01165 21.5232 4.16802L21.6796 5.67957C21.7056 5.862 21.862 5.96625 22.0184 5.96625C22.2008 5.94018 22.305 5.78382 22.305 5.62745L22.1487 4.11589C22.1226 3.93347 22.0184 3.82922 21.862 3.82922ZM25.9536 3.82922C25.7972 3.85528 25.693 3.95953 25.6669 4.11589L25.5106 5.62745C25.4845 5.80988 25.6148 5.94018 25.7972 5.96625C25.9797 5.99231 26.11 5.862 26.136 5.67957L26.2924 4.16802C26.3185 3.98559 26.1882 3.85528 26.0057 3.82922C25.9797 3.80316 25.9797 3.80316 25.9536 3.82922ZM19.7771 4.11589C19.751 4.11589 19.725 4.11589 19.725 4.11589C19.5686 4.14196 19.4383 4.32438 19.4904 4.48075L20.2462 7.99902C20.2722 8.15539 20.4547 8.2857 20.611 8.23358C20.7674 8.20752 20.8977 8.02509 20.8456 7.86872L20.0898 4.37651C20.0638 4.22014 19.9334 4.11589 19.7771 4.11589ZM28.0385 4.11589C27.8821 4.11589 27.7518 4.22014 27.7258 4.35045L26.97 7.86872C26.9439 8.02509 27.0482 8.20752 27.2045 8.23358C27.3609 8.25964 27.5433 8.15539 27.5694 7.99902L28.3252 4.48075C28.3512 4.32438 28.247 4.14196 28.0906 4.11589C28.0906 4.11589 28.0646 4.11589 28.0385 4.11589ZM17.7964 4.68924C17.7443 4.68924 17.7182 4.68924 17.6661 4.7153C17.5097 4.76743 17.4055 4.94985 17.4576 5.10622L17.9267 6.53959C17.9789 6.69596 18.1613 6.80021 18.3176 6.74808C18.474 6.69596 18.5783 6.51353 18.5261 6.35716L18.057 4.89773C18.0049 4.76743 17.9007 4.68924 17.7964 4.68924ZM30.0192 4.68924C29.8889 4.68924 29.7846 4.76743 29.7586 4.89773L29.2895 6.3311C29.2373 6.48747 29.3155 6.6699 29.4979 6.72202C29.6543 6.77414 29.8367 6.69596 29.8889 6.51353L30.358 5.08016C30.4101 4.92379 30.3319 4.74136 30.1495 4.68924C30.0974 4.68924 30.0713 4.68924 30.0192 4.68924ZM15.8158 5.3929C15.7636 5.3929 15.7376 5.3929 15.6855 5.41896C15.5291 5.49714 15.4509 5.67957 15.5291 5.83594L16.9885 9.11966C17.0667 9.27603 17.2491 9.35421 17.4055 9.27603C17.5619 9.19784 17.6401 9.01542 17.5619 8.85905L16.1024 5.60139C16.0503 5.47108 15.92 5.3929 15.8158 5.3929ZM32.0259 5.41896C31.8956 5.41896 31.7913 5.49714 31.7392 5.60139L30.2798 8.88511C30.2016 9.04148 30.2798 9.22391 30.4361 9.30209C30.5925 9.38027 30.7749 9.30209 30.8531 9.14572L32.3126 5.862C32.3907 5.70563 32.3126 5.5232 32.1562 5.44502C32.1041 5.41896 32.0519 5.41896 32.0259 5.41896ZM13.9915 6.38323C13.9394 6.38323 13.8612 6.38323 13.809 6.43535C13.6527 6.51353 13.6006 6.72202 13.7048 6.85233L14.4606 8.15539C14.5388 8.31176 14.7473 8.36388 14.8776 8.25964C15.0339 8.18145 15.0861 7.97296 14.9818 7.84266L14.226 6.53959C14.1739 6.43535 14.0697 6.38323 13.9915 6.38323ZM33.8241 6.38323C33.7199 6.38323 33.6417 6.43535 33.5896 6.53959L32.8338 7.84266C32.7556 7.99902 32.8077 8.18145 32.938 8.25964C33.0944 8.33782 33.2768 8.2857 33.355 8.15539L34.1108 6.85233C34.189 6.69596 34.1369 6.51353 34.0065 6.43535C33.9544 6.38323 33.8762 6.35716 33.8241 6.38323ZM12.1932 7.4778C12.1411 7.4778 12.0629 7.50386 12.0108 7.52992C11.8805 7.63417 11.8284 7.8166 11.9326 7.97296L14.0436 10.8658C14.1478 10.9961 14.3303 11.0482 14.4866 10.944C14.6169 10.8397 14.6691 10.6573 14.5648 10.5009L12.4539 7.60811C12.4017 7.52992 12.2975 7.4778 12.1932 7.4778ZM35.6223 7.50386C35.5181 7.50386 35.4139 7.55598 35.3617 7.63417L33.2508 10.527C33.1465 10.6573 33.1726 10.8658 33.329 10.97C33.4593 11.0743 33.6677 11.0482 33.772 10.8918L35.883 7.99902C35.9872 7.86872 35.9611 7.66023 35.8048 7.55598C35.7527 7.52992 35.6745 7.50386 35.6223 7.50386ZM10.6035 8.80692C10.5253 8.80692 10.4471 8.83299 10.369 8.88511C10.2386 8.98935 10.2386 9.19784 10.3429 9.32815L11.3593 10.4488C11.4635 10.5791 11.672 10.5791 11.8023 10.4748C11.9326 10.3706 11.9326 10.1621 11.8284 10.0318L10.812 8.91117C10.7599 8.85905 10.6817 8.80692 10.6035 8.80692ZM37.186 8.80692C37.1078 8.80692 37.0297 8.83299 36.9775 8.91117L35.9611 10.0318C35.8569 10.1621 35.8569 10.3445 35.9872 10.4748C36.1175 10.5791 36.2999 10.5791 36.4302 10.4488L37.4466 9.32815C37.5509 9.19784 37.5509 9.01541 37.4206 8.88511C37.3424 8.83299 37.2642 8.80692 37.186 8.80692ZM9.09195 10.2664C9.01377 10.2664 8.93559 10.2924 8.88346 10.3706C8.77922 10.5009 8.77922 10.6833 8.90952 10.8136L11.5678 13.2113C11.6981 13.3155 11.8805 13.3155 12.0108 13.1852C12.1151 13.0549 12.1151 12.8725 11.9848 12.7422L9.3265 10.3445C9.24832 10.2924 9.17014 10.2664 9.09195 10.2664ZM38.7236 10.2924C38.6455 10.2924 38.5673 10.3185 38.4891 10.3706L35.8308 12.7682C35.7005 12.8725 35.7005 13.081 35.8048 13.2113C35.909 13.3416 36.1175 13.3416 36.2478 13.2373L38.9061 10.8397C39.0364 10.7355 39.0364 10.527 38.9321 10.3967C38.88 10.3185 38.8018 10.2924 38.7236 10.2924ZM7.81495 11.9082C7.7107 11.9082 7.60646 11.9603 7.55434 12.0385C7.45009 12.1688 7.47615 12.3773 7.63252 12.4816L8.8574 13.3676C8.98771 13.4719 9.1962 13.4458 9.30044 13.2895C9.40469 13.1592 9.37863 12.9507 9.22226 12.8464L7.99738 11.9603C7.94526 11.9343 7.89313 11.9082 7.81495 11.9082ZM39.9746 11.9082C39.9225 11.9082 39.8443 11.9343 39.7922 11.9603L38.5673 12.8464C38.437 12.9507 38.3848 13.1331 38.4891 13.2895C38.5933 13.4198 38.7758 13.4719 38.9321 13.3676L40.157 12.4816C40.2873 12.3773 40.3394 12.1949 40.2352 12.0385C40.1831 11.9603 40.0788 11.9082 39.9746 11.9082ZM6.64219 13.6283C6.53795 13.6283 6.45976 13.6804 6.40764 13.7846C6.32946 13.941 6.38158 14.1234 6.51189 14.2016L9.61318 15.9998C9.76955 16.078 9.95198 16.0259 10.0302 15.8956C10.1083 15.7392 10.0562 15.5568 9.92591 15.4786L6.82462 13.6804C6.7725 13.6543 6.69431 13.6283 6.64219 13.6283ZM41.1734 13.6283C41.1213 13.6283 41.0431 13.6283 40.991 13.6804L37.8897 15.4786C37.7333 15.5568 37.6812 15.7653 37.7854 15.8956C37.8636 16.052 38.0721 16.1041 38.2024 15.9998L41.3037 14.2016C41.4601 14.1234 41.5122 13.9149 41.408 13.7846C41.3558 13.7064 41.2516 13.6543 41.1734 13.6283ZM5.75611 15.5047C5.6258 15.5047 5.52156 15.5829 5.46943 15.6871C5.39125 15.8435 5.46943 16.0259 5.6258 16.1041L7.00705 16.7296C7.16342 16.8077 7.34585 16.7296 7.42403 16.5732C7.50221 16.4168 7.42403 16.2344 7.26766 16.1562L5.88641 15.5307C5.83429 15.5047 5.78217 15.5047 5.75611 15.5047ZM42.0595 15.5047C42.0074 15.5047 41.9813 15.5047 41.9292 15.5307L40.5479 16.1562C40.3916 16.2344 40.3134 16.4168 40.3916 16.5732C40.4697 16.7296 40.6522 16.8077 40.8085 16.7296L42.1898 16.1041C42.3462 16.0259 42.4243 15.8435 42.3462 15.6871C42.294 15.5829 42.1898 15.5047 42.0595 15.5047ZM4.94821 17.4332C4.8179 17.4332 4.71366 17.5114 4.68759 17.6417C4.63547 17.7981 4.71366 17.9805 4.89609 18.0326L8.28405 19.1533C8.44042 19.2054 8.62285 19.1272 8.67497 18.9448C8.72709 18.7884 8.64891 18.606 8.46648 18.5538L5.05245 17.4332C5.02639 17.4332 5.00033 17.4332 4.94821 17.4332ZM42.8674 17.4332C42.8153 17.4332 42.7892 17.4332 42.7371 17.4593L39.3231 18.5799C39.1667 18.632 39.0624 18.8145 39.1146 18.9708C39.1667 19.1272 39.3491 19.2314 39.5055 19.1793L42.9195 18.0587C43.0759 18.0066 43.1801 17.8241 43.128 17.6678C43.0759 17.5375 42.9716 17.4593 42.8674 17.4332ZM4.45304 19.466C4.29668 19.466 4.16637 19.5702 4.14031 19.7005C4.11425 19.8569 4.21849 20.0393 4.37486 20.0654L5.86035 20.3781C6.01672 20.4042 6.19915 20.2999 6.22521 20.1436C6.25127 19.9872 6.14703 19.8048 5.99066 19.7787L4.50517 19.466C4.50517 19.466 4.4791 19.466 4.45304 19.466ZM43.3626 19.466C43.3365 19.466 43.3104 19.466 43.3104 19.466L41.8249 19.7787C41.6686 19.8048 41.5383 19.9872 41.5904 20.1436C41.6164 20.2999 41.7989 20.4303 41.9552 20.3781L43.4407 20.0654C43.5971 20.0393 43.7274 19.8569 43.6753 19.7005C43.6232 19.5702 43.4929 19.466 43.3626 19.466ZM4.08818 21.4988C3.93182 21.5248 3.82757 21.6291 3.80151 21.7854C3.77545 21.9679 3.90576 22.0982 4.08818 22.1242L7.65858 22.4891C7.84101 22.5152 7.97132 22.3849 7.99738 22.2024C8.02344 22.02 7.89313 21.8897 7.7107 21.8636L4.14031 21.4988C4.11425 21.4988 4.08818 21.4988 4.08818 21.4988ZM43.7274 21.5248C43.7013 21.5248 43.6753 21.5248 43.6753 21.5248L40.1049 21.8897C39.9225 21.9157 39.8182 22.0721 39.8182 22.2285C39.8443 22.4109 40.0006 22.5152 40.157 22.5152L43.7274 22.1503C43.9098 22.1242 44.0141 21.9679 44.0141 21.8115C43.988 21.6551 43.8838 21.5509 43.7274 21.5248ZM4.01 23.5837C3.82757 23.5837 3.69727 23.714 3.69727 23.8964C3.69727 24.0788 3.82757 24.2091 4.01 24.2091H5.52156C5.70398 24.2091 5.83429 24.0788 5.83429 23.8964C5.83429 23.714 5.70398 23.5837 5.52156 23.5837H4.01ZM42.268 23.5837C42.0855 23.5837 41.9552 23.714 41.9552 23.8964C41.9552 24.0788 42.0855 24.2091 42.268 24.2091H43.7795C43.962 24.2091 44.0923 24.0788 44.0923 23.8964C44.0923 23.714 43.962 23.5837 43.7795 23.5837H42.268ZM7.7107 25.2777C7.68464 25.2777 7.65858 25.2777 7.65858 25.2777L4.08818 25.6425C3.90576 25.6686 3.80151 25.8249 3.80151 25.9813C3.82757 26.1637 3.98394 26.268 4.14031 26.268L7.7107 25.9031C7.89313 25.8771 7.99738 25.7207 7.99738 25.5643C7.97132 25.408 7.84101 25.3037 7.7107 25.2777ZM40.1049 25.3037C39.9485 25.3298 39.8443 25.434 39.8182 25.5904C39.7922 25.7728 39.9225 25.9031 40.1049 25.9292L43.6753 26.294C43.8577 26.3201 43.988 26.1898 44.0141 26.0074C44.0401 25.8249 43.9098 25.6946 43.7274 25.6686L40.157 25.3037C40.131 25.3037 40.131 25.3037 40.1049 25.3037ZM5.91248 27.4147C5.88641 27.4147 5.86035 27.4147 5.86035 27.4147L4.37486 27.7274C4.21849 27.7535 4.08819 27.9359 4.14031 28.0923C4.16637 28.2486 4.3488 28.3789 4.50517 28.3268L5.99066 28.0141C6.14703 27.988 6.27733 27.8056 6.22521 27.6492C6.19915 27.5189 6.06884 27.4147 5.91248 27.4147ZM41.8771 27.4147C41.7207 27.4147 41.5904 27.5189 41.5643 27.6492C41.5383 27.8056 41.6425 27.988 41.7989 28.0141L43.2844 28.3268C43.4407 28.3529 43.6232 28.2486 43.6492 28.0923C43.6753 27.9359 43.571 27.7535 43.4147 27.7274L41.9292 27.4147C41.9292 27.4147 41.9031 27.4147 41.8771 27.4147ZM8.41436 28.6396C8.36224 28.6396 8.33618 28.6396 8.28405 28.6656L4.87002 29.7863C4.71366 29.8384 4.60941 30.0208 4.66153 30.1772C4.71366 30.3335 4.89609 30.4378 5.05245 30.3857L8.46648 29.265C8.62285 29.2129 8.72709 29.0305 8.67497 28.8741C8.64891 28.7177 8.5186 28.6396 8.41436 28.6396ZM39.4012 28.6396C39.2709 28.6396 39.1667 28.7177 39.1406 28.8481C39.0885 29.0044 39.1667 29.1868 39.3491 29.239L42.7631 30.3596C42.9195 30.4117 43.1019 30.3335 43.1541 30.1511C43.2062 29.9947 43.128 29.8123 42.9456 29.7602L39.5315 28.6396C39.4794 28.6396 39.4273 28.6396 39.4012 28.6396ZM7.11129 31.0633C7.05917 31.0633 7.03311 31.0633 6.98099 31.0893L5.59974 31.7148C5.44337 31.793 5.36519 31.9754 5.44337 32.1318C5.52156 32.2881 5.70399 32.3663 5.86035 32.2881L7.2416 31.6627C7.39797 31.5845 7.47615 31.4021 7.39797 31.2457C7.34585 31.1414 7.2416 31.0633 7.11129 31.0633ZM40.6782 31.0893C40.5479 31.0893 40.4437 31.1675 40.3916 31.2717C40.3134 31.4281 40.3916 31.6105 40.5479 31.6887L41.9292 32.3142C42.0855 32.3924 42.268 32.3142 42.3462 32.1578C42.4243 32.0015 42.3462 31.819 42.1898 31.7409L40.8085 31.1154C40.7825 31.0893 40.7304 31.0893 40.6782 31.0893ZM9.79561 31.7409C9.74348 31.7409 9.6653 31.7409 9.61318 31.793L6.51189 33.5912C6.35552 33.6694 6.30339 33.8779 6.40764 34.0082C6.48582 34.1646 6.69431 34.2167 6.82462 34.1124L9.92591 32.3142C10.0823 32.236 10.1344 32.0275 10.0302 31.8972C9.97804 31.819 9.89985 31.7669 9.79561 31.7409ZM38.02 31.7409C37.9157 31.7409 37.8376 31.793 37.7594 31.8972C37.6812 32.0536 37.7333 32.236 37.8636 32.3142L40.9649 34.1124C41.1213 34.1906 41.3037 34.1385 41.3819 34.0082C41.4601 33.8518 41.408 33.6694 41.2776 33.5912L38.1764 31.793C38.1242 31.7669 38.0721 31.7409 38.02 31.7409ZM9.01377 34.373C8.96165 34.373 8.88346 34.3991 8.83134 34.4252L7.60646 35.3112C7.47615 35.4155 7.42403 35.5979 7.52828 35.7543C7.63252 35.8846 7.81495 35.9367 7.97132 35.8325L9.1962 34.9464C9.3265 34.8421 9.37863 34.6597 9.27438 34.5033C9.22226 34.4252 9.11801 34.373 9.01377 34.373ZM38.7758 34.3991C38.6715 34.3991 38.5673 34.4512 38.5152 34.5294C38.4109 34.6597 38.437 34.8682 38.5933 34.9725L39.8182 35.8585C39.9485 35.9628 40.157 35.9367 40.2613 35.7803C40.3655 35.65 40.3394 35.4416 40.1831 35.3373L38.9582 34.4512C38.9061 34.4252 38.8279 34.3991 38.7758 34.3991ZM11.7763 34.5033C11.6981 34.5033 11.6199 34.5294 11.5417 34.5815L8.88346 36.9792C8.75316 37.0834 8.75316 37.2919 8.8574 37.4222C8.96165 37.5525 9.17014 37.5525 9.30044 37.4483L11.9587 35.0506C12.089 34.9464 12.089 34.7379 11.9848 34.6076C11.9326 34.5294 11.8545 34.5033 11.7763 34.5033ZM36.0133 34.5033C35.9351 34.5033 35.8569 34.5294 35.8048 34.6076C35.7005 34.7379 35.7005 34.9203 35.8308 35.0506L38.4891 37.4483C38.6194 37.5525 38.8018 37.5525 38.9321 37.4222C39.0364 37.2919 39.0364 37.1095 38.9061 36.9792L36.2478 34.5815C36.1696 34.5294 36.0914 34.5033 36.0133 34.5033ZM14.3042 36.7967C14.2 36.7967 14.0957 36.8489 14.0436 36.927L11.9326 39.8199C11.8284 39.9502 11.8544 40.1586 12.0108 40.2629C12.1411 40.3671 12.3496 40.3411 12.4539 40.1847L14.5648 37.2919C14.6691 37.1616 14.643 36.9531 14.4866 36.8489C14.4345 36.8228 14.3824 36.7967 14.3042 36.7967ZM33.4853 36.7967C33.4332 36.7967 33.355 36.8228 33.3029 36.8489C33.1726 36.9531 33.1205 37.1355 33.2247 37.2919L35.3357 40.1847C35.4399 40.315 35.6223 40.3671 35.7787 40.2629C35.909 40.1586 35.9611 39.9762 35.8569 39.8199L33.7459 36.927C33.6677 36.8489 33.5635 36.7967 33.4853 36.7967ZM11.5938 37.2398C11.5157 37.2398 11.4375 37.2658 11.3853 37.344L10.369 38.4647C10.2647 38.595 10.2647 38.7774 10.395 38.9077C10.5253 39.012 10.7078 39.012 10.8381 38.8816L11.8545 37.761C11.9587 37.6307 11.9587 37.4483 11.8284 37.318C11.7502 37.2658 11.672 37.2398 11.5938 37.2398ZM36.2218 37.2398C36.1436 37.2398 36.0654 37.2658 35.9872 37.318C35.8569 37.4222 35.8569 37.6307 35.9611 37.761L36.9775 38.8816C37.0818 39.012 37.2903 39.012 37.4206 38.9077C37.5509 38.8035 37.5509 38.595 37.4466 38.4647L36.4302 37.344C36.3781 37.2919 36.2999 37.2658 36.2218 37.2398ZM17.2491 38.4907C17.1188 38.4907 17.0146 38.5689 16.9625 38.6732L15.503 41.9569C15.4248 42.1132 15.503 42.2957 15.6594 42.3739C15.8158 42.452 15.9982 42.3739 16.0764 42.2175L17.5358 38.9338C17.614 38.7774 17.5358 38.595 17.3794 38.5168C17.3534 38.5168 17.3013 38.4907 17.2491 38.4907ZM30.5143 38.5168C30.4622 38.5168 30.4361 38.5168 30.384 38.5429C30.2277 38.621 30.1495 38.8035 30.2277 38.9598L31.6871 42.2436C31.7653 42.3999 31.9477 42.4781 32.1041 42.3999C32.2604 42.3217 32.3386 42.1393 32.2604 41.9829L30.801 38.6992C30.7489 38.5689 30.6446 38.4907 30.5143 38.5168ZM14.6951 39.5071C14.5909 39.5071 14.5127 39.5592 14.4606 39.6635L13.7048 40.9665C13.6266 41.1229 13.6787 41.3053 13.809 41.3835C13.9654 41.4617 14.1478 41.4096 14.226 41.2793L14.9818 39.9762C15.06 39.8199 15.0079 39.6374 14.8776 39.5592C14.8254 39.5071 14.7473 39.5071 14.6951 39.5071ZM33.1205 39.5071C33.0683 39.5071 32.9902 39.5071 32.938 39.5592C32.7817 39.6374 32.7295 39.8459 32.8338 39.9762L33.5896 41.2793C33.6677 41.4357 33.8762 41.4878 34.0065 41.3835C34.1629 41.3053 34.215 41.0969 34.1108 40.9665L33.355 39.6635C33.3029 39.5592 33.1986 39.5071 33.1205 39.5071ZM20.5068 39.5592C20.3504 39.5592 20.2201 39.6635 20.1941 39.7938L19.4383 43.3121C19.4122 43.4684 19.5165 43.6509 19.6728 43.6769C19.8292 43.703 20.0116 43.5987 20.0377 43.4424L20.7935 39.9241C20.8195 39.7677 20.7153 39.5853 20.5589 39.5592C20.5589 39.5592 20.5329 39.5592 20.5068 39.5592ZM27.2827 39.5592C27.2567 39.5592 27.2306 39.5592 27.2306 39.5592C27.0742 39.5853 26.9439 39.7677 26.9961 39.9241L27.7518 43.4424C27.7779 43.5987 27.9603 43.729 28.1167 43.6769C28.2731 43.6509 28.4034 43.4684 28.3512 43.3121L27.5955 39.7938C27.5433 39.6635 27.413 39.5592 27.2827 39.5592ZM23.8948 39.898C23.7123 39.898 23.582 40.0283 23.582 40.2108V43.8072C23.582 43.9897 23.7123 44.12 23.8948 44.12C24.0772 44.12 24.2075 43.9897 24.2075 43.8072V40.2108C24.2075 40.0544 24.0772 39.898 23.8948 39.898ZM18.1873 41.0708C18.057 41.0708 17.9528 41.149 17.9267 41.2793L17.4576 42.7127C17.4055 42.869 17.4837 43.0515 17.6661 43.1036C17.8225 43.1557 18.0049 43.0775 18.057 42.8951L18.5261 41.4617C18.5783 41.3053 18.5001 41.1229 18.3176 41.0708C18.2655 41.0708 18.2395 41.0708 18.1873 41.0708ZM29.6022 41.0708C29.5501 41.0708 29.524 41.0708 29.4719 41.0969C29.3155 41.149 29.2113 41.3314 29.2634 41.4878L29.7325 42.9211C29.7846 43.0775 29.967 43.1818 30.1234 43.1296C30.2798 43.0775 30.384 42.8951 30.3319 42.7387L29.8628 41.3053C29.8367 41.149 29.7325 41.0708 29.6022 41.0708ZM21.9402 41.8787C21.7838 41.9048 21.6796 42.009 21.6535 42.1654L21.4971 43.6769C21.4711 43.8594 21.6014 43.9897 21.7838 44.0157C21.9662 44.0418 22.0965 43.9115 22.1226 43.729L22.279 42.2175C22.305 42.0351 22.1747 41.9048 21.9923 41.8787C21.9923 41.8787 21.9662 41.8787 21.9402 41.8787ZM25.8494 41.8787C25.8233 41.8787 25.7972 41.8787 25.7972 41.8787C25.6148 41.9048 25.5106 42.0611 25.5106 42.2175L25.6669 43.729C25.693 43.9115 25.8494 44.0157 26.0057 44.0157C26.1882 43.9897 26.2924 43.8333 26.2924 43.6769L26.136 42.1654C26.11 42.009 25.9797 41.8787 25.8494 41.8787Z" fill="#F4F2F3"/>
<path id="Vector_5" opacity="0.409" d="M38.4638 11.4631L21.4718 21.3403L10.7085 38.2801L26.4495 26.6307L38.4638 11.4631Z" fill="#0F0518"/>
<path id="Vector_6" d="M26.3447 26.4506L21.4712 21.3426L38.7759 9.69324L26.3447 26.4506Z" fill="#FF5150"/>
<path id="Vector_7" d="M26.3442 26.449L21.4708 21.3409L9.03955 38.0723L26.3442 26.449Z" fill="#F1F1F1"/>
<path id="Vector_8" opacity="0.243" d="M9.03955 38.0995L26.3442 26.4501L38.7755 9.71875L9.03955 38.0995Z" fill="#0F0518"/>
</g>
</g>
<defs>
<linearGradient id="paint0_linear_273_6901" x1="23.903" y1="47.0439" x2="23.903" y2="0.760863" gradientUnits="userSpaceOnUse">
<stop stop-color="#BDBDBD"/>
<stop offset="1" stop-color="white"/>
</linearGradient>
<radialGradient id="paint1_radial_273_6901" cx="0" cy="0" r="1" gradientUnits="userSpaceOnUse" gradientTransform="translate(23.997 20.7925) scale(23.1409 23.1409)">
<stop stop-color="#06C2E7"/>
<stop offset="0.25" stop-color="#0DB8EC"/>
<stop offset="0.5" stop-color="#12AEF1"/>
<stop offset="0.75" stop-color="#1F86F9"/>
<stop offset="1" stop-color="#107DDD"/>
</radialGradient>
<clipPath id="clip0_273_6901">
<rect width="46.363" height="46.5455" fill="white" transform="translate(0.727051 0.727295)"/>
</clipPath>
</defs>
</svg>
